<svg xmlns="http://www.w3.org/2000/svg" width="1024" height="1024" viewBox="0 0 1024 1024" fill="none">
  <defs>
    <linearGradient id="tile" x1="160" y1="80" x2="860" y2="960" gradientUnits="userSpaceOnUse">
      <stop stop-color="#FFF9F0"/>
      <stop offset="0.52" stop-color="#F5EADF"/>
      <stop offset="1" stop-color="#E7D6C3"/>
    </linearGradient>
    <linearGradient id="folderBack" x1="260" y1="260" x2="700" y2="760" gradientUnits="userSpaceOnUse">
      <stop stop-color="#91775E"/>
      <stop offset="1" stop-color="#604A38"/>
    </linearGradient>
    <linearGradient id="folderFront" x1="230" y1="390" x2="780" y2="820" gradientUnits="userSpaceOnUse">
      <stop stop-color="#E6CDB0"/>
      <stop offset="0.58" stop-color="#C7AB8B"/>
      <stop offset="1" stop-color="#9B7B5D"/>
    </linearGradient>
    <linearGradient id="folderTab" x1="260" y1="300" x2="650" y2="450" gradientUnits="userSpaceOnUse">
      <stop stop-color="#B99B7A"/>
      <stop offset="1" stop-color="#80654C"/>
    </linearGradient>
    <linearGradient id="accent" x1="530" y1="470" x2="820" y2="900" gradientUnits="userSpaceOnUse">
      <stop stop-color="#F29571"/>
      <stop offset="0.55" stop-color="#D66D4C"/>
      <stop offset="1" stop-color="#A84831"/>
    </linearGradient>
    <filter id="tileShadow" x="75" y="60" width="874" height="910" filterUnits="userSpaceOnUse" color-interpolation-filters="sRGB">
      <feDropShadow dx="0" dy="22" stdDeviation="19" flood-color="#745B45" flood-opacity="0.27"/>
    </filter>
    <filter id="objectShadow" x="145" y="210" width="760" height="700" filterUnits="userSpaceOnUse" color-interpolation-filters="sRGB">
      <feDropShadow dx="0" dy="17" stdDeviation="13" flood-color="#5C4531" flood-opacity="0.26"/>
    </filter>
    <filter id="softGlow" x="90" y="80" width="844" height="844" filterUnits="userSpaceOnUse">
      <feGaussianBlur stdDeviation="26"/>
    </filter>
    <clipPath id="tileClip"><rect x="92" y="92" width="840" height="840" rx="206"/></clipPath>
  </defs>

  <g filter="url(#tileShadow)">
    <rect x="92" y="92" width="840" height="840" rx="206" fill="url(#tile)"/>
    <rect x="103" y="103" width="818" height="818" rx="195" stroke="#FFFDF8" stroke-width="11" stroke-opacity="0.8"/>
    <ellipse cx="512" cy="238" rx="280" ry="110" fill="#FFFDF8" fill-opacity="0.45" filter="url(#softGlow)"/>
  </g>

  <g clip-path="url(#tileClip)" filter="url(#objectShadow)">
    <path d="M216 365c0-48 39-87 87-87h145l64 72h205c47 0 85 38 85 85v283c0 48-39 87-87 87H303c-48 0-87-39-87-87V365Z" fill="url(#folderBack)"/>
    <path d="M218 417c0-51 41-92 92-92h155l56 63h201c50 0 91 41 91 91v207c0 51-41 92-92 92H310c-51 0-92-41-92-92V417Z" fill="url(#folderTab)"/>
    <path d="M221 454c0-42 34-76 76-76h401c45 0 81 36 81 81v218c0 50-40 90-90 90H311c-50 0-90-40-90-90V454Z" fill="url(#folderFront)"/>
    <path d="M230 466c0-28 23-50 51-50h412c31 0 57 25 58 56" stroke="#FBEEDD" stroke-opacity="0.66" stroke-width="13" stroke-linecap="round"/>
  </g>

  <g filter="url(#objectShadow)">
    <circle cx="680" cy="675" r="145" fill="url(#accent)"/>
    <circle cx="680" cy="675" r="105" fill="#F9F0E5" fill-opacity="0.92"/>
    <path d="m777 772 111 111" stroke="url(#accent)" stroke-width="58" stroke-linecap="round"/>
    <path d="m789 784 100 100" stroke="#B9553C" stroke-opacity="0.52" stroke-width="11" stroke-linecap="round"/>
    <circle cx="680" cy="675" r="105" stroke="#FFF8EF" stroke-width="11" stroke-opacity="0.78"/>
  </g>
</svg>
